<svg width="164" height="117" viewBox="0 0 164 117" fill="none" xmlns="http://www.w3.org/2000/svg">
<path fill-rule="evenodd" clip-rule="evenodd" d="M126.257 116.581L163.423 116.578L149.729 94.2932C148.174 91.8421 147.086 89.7207 145.392 87.1408L94.5929 4.82229L94.5861 4.81174L94.5797 4.80114L94.5729 4.79055L94.5664 4.78L94.5532 4.75881L94.5468 4.74822L94.5271 4.71647L94.5203 4.70551L94.5139 4.69496C94.3869 4.48973 94.2565 4.28034 94.0362 3.9485C93.7931 3.58226 93.4409 3.06671 93.2031 2.73374C92.9658 2.40038 92.8434 2.25035 92.716 2.10786C92.5886 1.96537 92.4571 1.83081 92.3165 1.70042C92.1763 1.56965 92.0277 1.44343 91.8864 1.33269C91.745 1.22157 91.6116 1.12632 91.4355 1.01634C91.2594 0.905976 91.0405 0.780481 90.8447 0.679946C90.6493 0.579032 90.4762 0.503077 90.2782 0.428999C90.0801 0.354542 89.8571 0.281982 89.6058 0.219242C89.3545 0.156502 89.0755 0.102824 88.8076 0.0684301C88.54 0.0340364 88.2837 0.0185389 87.9984 0.0102239C87.7134 0.00190896 87.3997 0.00115305 87.1529 0.000775098L86.8985 0H86.8887H86.8789H86.869H86.8592H86.8498H86.84H86.8301H86.8207H86.8108H86.8014H86.7919H86.7821H86.7727H86.7632H86.7538H86.744H86.7345H86.7251H86.7156H86.7062H86.6963H86.6869H86.6774H86.668H86.6581H86.6487H86.6389H86.6294H86.6196H86.6098H86.6003H86.5905H86.5807H86.5709H86.561H86.5508H86.541H86.5308H86.521H86.5108H86.5005H86.4904H86.4801H86.4695H86.4594H86.4488H86.4386H86.428H86.4174H86.4068H86.3959H86.3853H86.3747H86.3637H86.3528H86.3422H86.3312H86.3203H86.3093H86.2984H86.2874H86.2764H86.2651H86.2541H86.2428H86.2318H86.2205H86.2095H86.1982H86.1868H86.1755H86.1646H86.1532H86.1419H86.1305H86.1192H86.1079H86.0965H86.0852H86.0738H86.0625H86.0512H86.0398H86.0285H86.0168H86.0054H85.9941H85.9827H85.9714H85.9601H85.9487H85.9374H85.926H85.9147H85.9034H85.8921H85.8807H85.8698H85.8584H85.8471H85.8361H85.8248H85.8134H85.8025H85.7915H85.7802H85.7692H85.7583H85.7469H53.7612H50.84L50.5977 0.000406004C50.2677 0.000783957 50.1343 0.00114567 49.9873 0.00265748C49.8403 0.00416929 49.68 0.00642815 49.5391 0.0124754C49.3981 0.0185226 49.2771 0.0283686 49.1569 0.0415969C49.0364 0.0548253 48.9169 0.0714419 48.7873 0.0941191C48.6573 0.116796 48.517 0.14516 48.3791 0.17842C48.2411 0.211302 48.1058 0.248705 47.9841 0.286122C47.8621 0.323161 47.7536 0.360594 47.6364 0.405192C47.5192 0.44979 47.3927 0.501561 47.2887 0.547293C47.1848 0.592648 47.1031 0.631583 46.9992 0.68563C46.8953 0.739677 46.769 0.808837 46.6662 0.868553C46.563 0.927892 46.4837 0.977383 46.3952 1.03634C46.3064 1.0953 46.2089 1.16298 46.1023 1.24311C45.9957 1.32286 45.8805 1.41469 45.7709 1.50805C45.6609 1.6014 45.5573 1.69625 45.4617 1.78885C45.366 1.88145 45.2784 1.97217 45.1907 2.06892C45.103 2.16568 45.0149 2.26925 44.9371 2.36601C44.8588 2.46238 44.7908 2.55232 44.7235 2.64718C44.6559 2.74205 44.589 2.84148 44.4937 2.97678C44.3981 3.11209 44.2738 3.28292 44.1423 3.47303C44.0104 3.66314 43.8709 3.87213 43.7477 4.06602L43.6392 4.23458C33.0558 21.8392 4.0354 66.2831 0 74.6011C10.5233 74.4484 19.8777 74.0716 29.7596 73.954L29.7638 73.9537H29.771L29.7827 73.9533L30.0174 73.948C30.268 73.9427 30.5084 73.9344 30.7831 73.9332C30.9899 73.9325 31.2144 73.9366 31.4257 73.9363H31.4389H31.4521H31.4653H31.4782H31.4914H31.5042L31.6808 73.9348H31.6929L31.705 73.9344H31.7171L31.7291 73.934H31.7409C31.9593 73.9294 32.1532 73.9174 32.3679 73.8913C32.6177 73.8614 32.8959 73.8134 33.1366 73.7586C33.3774 73.7042 33.5811 73.6434 33.7852 73.5704C33.9893 73.4975 34.1938 73.4121 34.3975 73.3138C34.6012 73.2155 34.8038 73.104 34.9996 72.9819C35.195 72.8602 35.3832 72.7276 35.5771 72.5718C35.7706 72.4165 35.9702 72.2377 36.1618 72.0412C36.3534 71.8447 36.5378 71.63 36.6958 71.4236C36.8534 71.2173 36.9853 71.0188 37.18 70.7418C37.3743 70.4648 37.6313 70.1095 37.8546 69.778C38.013 69.5467 38.1524 69.3248 38.3229 69.0489L38.3343 69.0305L38.369 68.9741L38.3807 68.9552L38.3928 68.936L38.4049 68.9163L38.417 68.8967L38.4295 68.877L38.4416 68.8566L38.4541 68.8366L38.4669 68.8162L38.4798 68.7953L38.4926 68.7746L38.5055 68.7534L38.5187 68.7319L38.5319 68.7103L38.5455 68.6884L38.5591 68.6665L38.5727 68.6442L38.5867 68.6215L38.6007 68.5988L38.6151 68.5758L38.6294 68.5527L38.6438 68.5289L38.6585 68.5055L38.6733 68.4813L38.6884 68.4571L38.7035 68.4325L38.7186 68.4079L38.7337 68.383L38.7492 68.3581L38.7651 68.3328L38.781 68.307L38.7969 68.2813L38.8127 68.2552L38.829 68.2288L38.8452 68.2023L38.8619 68.1755L38.8785 68.1487L38.8951 68.1214L38.9121 68.0942L38.9291 68.0667L38.9465 68.0387L38.9635 68.0107L38.9813 67.9824L38.9987 67.954L39.0165 67.9253L39.0342 67.8966L39.0524 67.8675L39.0701 67.838L39.0887 67.8085L39.1068 67.7787L39.1253 67.7488L39.1438 67.7186L39.1627 67.6883L39.1816 67.6577L39.2005 67.6271L39.2194 67.5961L39.2387 67.5647L39.2583 67.5334L39.2776 67.502L39.2973 67.4703L39.3169 67.4381L39.3369 67.406L39.3566 67.3739L39.397 67.3085L39.4174 67.2756L39.4379 67.2423L39.4583 67.2091L39.5841 67.0054L39.6053 66.971L39.6484 66.901L39.6699 66.8659L39.6919 66.8308L39.7138 66.7952L39.7799 66.6879L39.8022 66.6516L43.8535 60.0828C46.8302 55.2004 49.3693 50.9329 52.3143 46.1783C55.1747 41.5601 57.8563 37.0965 60.7692 32.2783L69.1752 19.0318L126.257 116.581Z" fill="black"/>
</svg>
