<svg width="224" height="323" viewBox="0 0 224 323" fill="none" xmlns="http://www.w3.org/2000/svg">
<path fill-rule="evenodd" clip-rule="evenodd" d="M152.886 44.7944C155.629 39.6826 158.035 35.0935 161.108 29.9877L169.096 15.5662L1.00396 15.5605L0.994141 262.999L214.536 262.985L200.842 240.7C199.287 238.249 198.199 236.128 196.505 233.548L142.73 146.407H97.2315C89.8992 159.489 55.5308 211.902 51.1129 221.008C63.5861 220.828 74.4186 220.329 86.4322 220.326L94.9664 206.49C97.9432 201.607 100.482 197.34 103.427 192.585C106.288 187.967 108.969 183.503 111.882 178.685L120.288 165.439L158.837 231.806L35.598 231.787L35.6418 141.726L139.265 141.711L149.019 124.982C152.14 119.202 155.318 114.456 158.26 108.452L35.5946 108.441L35.6498 44.7623L152.886 44.7944Z" fill="white"/>
<path fill-rule="evenodd" clip-rule="evenodd" d="M122.945 103.808L161.634 103.747L223.322 0.00413386L186.003 0C178.865 9.89178 154.438 51.0777 146.554 64.2539C142.71 70.6787 123.82 100.04 122.945 103.808Z" fill="white"/>
<path fill-rule="evenodd" clip-rule="evenodd" d="M113.207 103.711L113.379 100.958L85.044 54.8919L48.4453 54.8848C49.061 57.648 60.4736 75.6192 62.7686 79.2132C65.0068 82.7195 76.9044 101.375 77.5624 103.754L113.207 103.711Z" fill="white"/>
<path d="M0 321.394V278.908H25.1512V286.654H8.7311V295.038H25.1512V302.958H8.7311V314.359H25.1512V322.395H0V321.394Z" fill="white"/>
<path d="M28.216 320.87L41.357 299.677L28.866 278.908H38.2775L44.5405 289.541C44.7269 289.851 44.9839 290.305 45.3032 290.894L45.9046 292.024L46.6264 290.751C48.9822 286.767 51.4869 282.846 53.9247 278.908H63.1694L50.4321 299.586L64.0716 322.395H54.2951C51.3973 317.485 48.3597 312.653 45.7205 307.599L44.9389 308.997L44.3058 310.065L36.7588 322.395H27.2715L28.216 320.87Z" fill="white"/>
<path d="M105.21 296.304H105.438C107.167 296.304 111.774 296.205 112.898 296.009C113.935 295.827 114.686 295.571 115.145 295.244C115.572 294.941 115.898 294.512 116.117 293.959C116.36 293.349 116.483 292.575 116.483 291.638C116.483 289.69 115.988 288.351 115 287.614C114.494 287.236 113.729 286.945 112.713 286.741C111.614 286.522 107.069 286.411 105.438 286.411H105.21V296.304ZM105.017 304.53V322.094H96.6914V278.607H110.057C111.452 278.607 112.7 278.655 113.797 278.747C114.919 278.841 115.89 278.986 116.705 279.177C117.522 279.369 118.289 279.628 119.003 279.955C119.721 280.283 120.379 280.678 120.975 281.14C121.692 281.701 122.321 282.338 122.865 283.049C123.406 283.756 123.871 284.545 124.255 285.41L124.259 285.418C124.633 286.27 124.916 287.169 125.105 288.111C125.295 289.041 125.389 290.015 125.389 291.029C125.389 292.78 125.172 294.359 124.74 295.76C124.299 297.189 123.63 298.429 122.739 299.478C121.842 300.53 120.737 301.368 119.427 301.991C118.591 302.389 117.669 302.702 116.662 302.926L126.547 322.094H116.439L108.304 304.553L105.017 304.53Z" fill="white"/>
<path d="M144.137 305.269H151.624C150.431 302.46 149.119 299.636 148.071 296.769L147.876 296.189L147.715 296.679C146.675 299.583 145.343 302.432 144.137 305.269ZM158.435 321.835L154.516 312.406H141.138L136.884 322.395H128.674L147.805 278.908L166.917 322.395H158.667L158.435 321.835Z" fill="white"/>
<path d="M177.676 320.402L158.559 278.908H167.747L177.295 300.085C177.552 300.633 177.807 301.218 178.059 301.829C178.266 302.324 178.451 302.797 178.614 303.245C178.789 302.765 178.989 302.259 179.209 301.732C179.431 301.2 179.674 300.653 179.936 300.094L181.929 295.659L174.212 278.908H183.4L186.433 285.637L189.459 278.908H198.609L190.926 295.601L192.948 300.085C193.205 300.633 193.46 301.218 193.712 301.829C193.919 302.324 194.104 302.797 194.266 303.245C194.441 302.765 194.642 302.259 194.862 301.732C195.084 301.2 195.327 300.653 195.589 300.094L205.111 278.908H214.262L194.247 322.395L193.329 320.402L186.417 305.399L178.594 322.395L177.676 320.402Z" fill="white"/>
<path d="M83.0196 286.654V322.395H74.2878V286.654H63.2637V278.908H93.9855V286.654H83.0196Z" fill="white"/>
</svg>
