<?xml version="1.0" encoding="UTF-8"?>
<!DOCTYPE svg PUBLIC "-//W3C//DTD SVG 1.1//EN" "http://www.w3.org/Graphics/SVG/1.1/DTD/svg11.dtd">
<!-- Creator: CorelDRAW 2018 (64-Bit Evaluation Version) -->
<svg xmlns="http://www.w3.org/2000/svg" xml:space="preserve" width="297mm" height="210mm" version="1.1" style="shape-rendering:geometricPrecision; text-rendering:geometricPrecision; image-rendering:optimizeQuality; fill-rule:evenodd; clip-rule:evenodd"
viewBox="0 0 29700 21000"
 xmlns:xlink="http://www.w3.org/1999/xlink">
 <defs>
  <style type="text/css">
   <![CDATA[
    .fil0 {fill:#1F1B20}
   ]]>
  </style>
 </defs>
 <g id="Layer_x0020_1">
  <metadata id="CorelCorpID_0Corel-Layer"/>
  <path class="fil0" d="M15940.71 7420.18c72.58,-135.25 136.23,-256.67 217.54,-391.76l211.35 -381.57 -4447.43 -0.15 -0.26 6546.82 5649.97 -0.38 -362.32 -589.62c-41.15,-64.85 -69.93,-120.98 -114.75,-189.24 -988.92,-45.83 0,0 -996.65,-46.09l-3260.69 -0.5 1.16 -2382.86 2529.5 -0.36 1.31 0 67.31 -0.01 2.99 0 16.47 0 13.8 -0.08c8.08,-0.09 17.19,-0.26 25.14,-0.83 7.96,-0.57 14.77,-1.53 21.9,-3.06 7.13,-1.53 14.57,-3.61 21.43,-6 6.86,-2.39 13.12,-5.07 18.67,-7.79 5.56,-2.72 10.41,-5.48 14.51,-8.01 4.1,-2.54 7.45,-4.86 10.63,-7.22 3.19,-2.37 6.21,-4.78 9.64,-7.8 3.43,-3.03 7.28,-6.67 10.81,-10.31 3.54,-3.65 6.76,-7.31 9.98,-11.34 3.22,-4.03 6.44,-8.45 9.28,-12.72 2.85,-4.28 5.32,-8.43 8.28,-13.46 2.96,-5.04 6.4,-10.98 10.14,-16.9 3.74,-5.93 7.76,-11.85 13.07,-20.46 1.52,-2.48 3.16,-5.17 4.89,-7.89l180.03 -308.78c82.56,-152.92 166.64,-278.51 244.48,-437.36l-3245.51 -0.29 1.46 -1684.83 3101.87 0.85z"/>
 </g>
</svg>
