<svg width="175" height="104" viewBox="0 0 175 104" fill="none" xmlns="http://www.w3.org/2000/svg">
<path fill-rule="evenodd" clip-rule="evenodd" d="M74.5 103.808L107.858 103.756H107.883L108.059 103.755H108.084H108.11H108.136L108.239 103.755H108.265H108.29H108.317H108.343L108.369 103.754H108.395H108.421H108.447H108.473L108.499 103.754H108.525H108.551C108.907 103.753 109.258 103.75 109.55 103.742C110.005 103.73 110.316 103.708 110.55 103.68C110.785 103.652 110.943 103.618 111.097 103.58C111.251 103.542 111.4 103.498 111.604 103.424C111.807 103.35 112.065 103.245 112.288 103.141C112.511 103.036 112.699 102.932 112.878 102.821C113.057 102.71 113.227 102.592 113.398 102.46C113.569 102.327 113.742 102.18 113.899 102.031C114.056 101.882 114.198 101.733 114.332 101.577C114.466 101.422 114.592 101.26 114.716 101.091C114.839 100.921 114.96 100.742 115.233 100.295C115.455 99.9326 115.777 99.3932 116.085 98.8751L116.143 98.778L116.297 98.5187L116.54 98.1101L116.584 98.0364L116.627 97.9642L116.647 97.9298L116.714 97.8187L116.727 97.796L116.82 97.6388L116.848 97.5923L116.859 97.5738L116.878 97.5417L116.92 97.471L116.921 97.4695L116.947 97.4256L116.966 97.3943L116.978 97.3727L117.031 97.2843L117.047 97.2586L117.104 97.1614L117.111 97.1497L117.161 97.0658L117.241 96.9316L117.261 96.8976L117.277 96.8708L117.306 96.8224L117.417 96.635L117.46 96.5624L117.472 96.5427L174.877 0.00415231L137.558 0C130.419 9.89178 105.993 51.0777 98.1088 64.2539C94.2643 70.6787 75.3742 100.04 74.5 103.808Z" fill="black"/>
<path fill-rule="evenodd" clip-rule="evenodd" d="M64.9319 100.982L64.9334 100.958L39.5308 59.6587C39.4688 59.5672 39.4103 59.475 39.3547 59.3881C39.1037 58.995 38.9121 58.7131 38.7587 58.4693C38.6052 58.2255 38.49 58.0203 38.3085 57.7584C38.1267 57.4961 37.878 57.1774 37.6411 56.9151C37.4037 56.6525 37.1777 56.4461 36.9634 56.2722C36.7487 56.0984 36.5458 55.9566 36.2922 55.8089C36.0386 55.6611 35.7339 55.5073 35.4678 55.3912C35.2014 55.2752 34.9735 55.1973 34.7403 55.1206C34.5071 55.0435 34.2694 54.9675 33.9379 54.9297C33.6578 54.8976 33.3116 54.8923 32.7908 54.8916H32.7617H32.4832L32.0254 54.8912H31.988H31.9499H31.9113H31.8727H31.8338H31.7941H31.7545H31.7148H31.6743H31.6339H31.5927H31.5515H31.5103H31.4683H31.4264H31.3841H31.3414H31.2987H31.2552H31.2121H31.1683H31.1244H31.0802H31.036H30.9914H30.9464H30.9014H30.8561L30.3443 54.8908H30.2963H30.2487H30.2007H30.1527H30.1043H30.056H30.0072H29.9584H29.9097H29.8606H29.8114H29.7623H29.7128H29.6632H29.6137H29.5642H29.5143H29.4644H29.4142H29.3639H29.314H29.2634H29.2131H29.1625H29.1118L29.0612 54.8904H29.0105H28.9595H28.9085H28.8575H28.8064H28.7554H28.704H28.6526H28.6012H28.5498H28.4984H28.4466H28.3948H28.3434H28.2916H28.2399H28.1877H28.1359H28.0842H28.032H27.9798H27.9281H27.8759H27.8237H27.7716H27.7194H27.6673H27.6151H27.5626H27.5104H27.4583H27.4057H27.3536H27.301H27.2489H27.1964H27.1442H27.0916H27.0395H26.9873H26.4646L26.205 54.8901H26.1536H26.1022L26.0512 54.8897L0 54.8848L17.0638 83.5242C20.1453 88.3926 24.7669 95.7713 27.3079 100.216L27.3165 100.231L27.3256 100.246C27.4352 100.433 27.5497 100.62 27.6707 100.801C27.8797 101.114 28.1106 101.412 28.2981 101.632C28.4855 101.852 28.6299 101.995 28.8155 102.155C29.0007 102.315 29.2275 102.492 29.4966 102.667C29.7653 102.843 30.0767 103.018 30.4116 103.167C30.7461 103.316 31.1044 103.441 31.4328 103.529C31.7613 103.617 32.0602 103.668 32.3917 103.696C32.7232 103.724 33.0867 103.728 33.5233 103.733C33.9594 103.738 34.4678 103.742 35.243 103.744L35.6583 103.746L64.0887 103.711L64.0876 103.725H66.6168L64.9319 100.982Z" fill="black"/>
</svg>
