<?xml version="1.0" encoding="UTF-8"?>
<!DOCTYPE svg PUBLIC "-//W3C//DTD SVG 1.1//EN" "http://www.w3.org/Graphics/SVG/1.1/DTD/svg11.dtd">
<!-- Creator: CorelDRAW 2018 (64-Bit Evaluation Version) -->
<svg xmlns="http://www.w3.org/2000/svg" xml:space="preserve" width="297mm" height="210mm" version="1.1" style="shape-rendering:geometricPrecision; text-rendering:geometricPrecision; image-rendering:optimizeQuality; fill-rule:evenodd; clip-rule:evenodd"
viewBox="0 0 29700 21000"
 xmlns:xlink="http://www.w3.org/1999/xlink">
 <defs>
  <style type="text/css">
   <![CDATA[
    .fil0 {fill:#1F1B20}
   ]]>
  </style>
 </defs>
 <g id="Layer_x0020_1">
  <metadata id="CorelCorpID_0Corel-Layer"/>
  <path class="fil0" d="M16588.52 13193.21l983.36 -0.07 -362.32 -589.62c-41.15,-64.85 -69.93,-120.98 -114.75,-189.24l-1344.07 -2178.01 -0.18 -0.28 -0.17 -0.28 -0.18 -0.28 -0.17 -0.28 -0.35 -0.56 -0.17 -0.28 -0.52 -0.84 -0.18 -0.29 -0.17 -0.28c-3.36,-5.43 -6.81,-10.97 -12.64,-19.75 -6.43,-9.69 -15.75,-23.33 -22.04,-32.14 -6.28,-8.82 -9.52,-12.79 -12.89,-16.56 -3.37,-3.77 -6.85,-7.33 -10.57,-10.78 -3.71,-3.46 -7.64,-6.8 -11.38,-9.73 -3.74,-2.94 -7.27,-5.46 -11.93,-8.37 -4.66,-2.92 -10.45,-6.24 -15.63,-8.9 -5.17,-2.67 -9.75,-4.68 -14.99,-6.64 -5.24,-1.97 -11.14,-3.89 -17.79,-5.55 -6.65,-1.66 -14.03,-3.08 -21.12,-3.99 -7.08,-0.91 -13.86,-1.32 -21.41,-1.54 -7.54,-0.22 -15.84,-0.24 -22.37,-0.25l-6.73 -0.02 -0.26 0 -0.26 0 -0.26 0 -0.26 0 -0.25 0 -0.26 0 -0.26 0 -0.25 0 -0.26 0 -0.25 0 -0.25 0 -0.26 0 -0.25 0 -0.25 0 -0.25 0 -0.26 0 -0.25 0 -0.25 0 -0.25 0 -0.25 0 -0.26 0 -0.25 0 -0.25 0 -0.25 0 -0.26 0 -0.25 0 -0.26 0 -0.25 0 -0.26 0 -0.26 0 -0.25 0 -0.26 0 -0.26 0 -0.26 0 -0.26 0 -0.27 0 -0.26 0 -0.27 0 -0.26 0 -0.27 0 -0.27 0 -0.27 0 -0.27 0 -0.28 0 -0.27 0 -0.28 0 -0.27 0 -0.28 0 -0.28 0 -0.28 0 -0.29 0 -0.28 0 -0.28 0 -0.29 0 -0.29 0 -0.28 0 -0.29 0 -0.29 0 -0.29 0 -0.29 0 -0.29 0 -0.29 0 -0.3 0 -0.29 0 -0.3 0 -0.29 0 -0.3 0 -0.29 0 -0.3 0 -0.3 0 -0.3 0 -0.29 0 -0.3 0 -0.3 0 -0.3 0 -0.3 0 -0.3 0 -0.3 0 -0.3 0 -0.3 0 -0.3 0 -0.3 0 -0.3 0 -0.3 0 -0.31 0 -0.3 0 -0.3 0 -0.3 0 -0.3 0 -0.3 0 -0.3 0 -0.3 0 -0.3 0 -0.3 0 -0.3 0 -0.3 0 -0.3 0 -0.29 0 -0.3 0 -0.3 0 -0.29 0 -0.3 0 -0.3 0 -0.29 0 -0.29 0 -0.3 0 -0.29 0 -0.29 0 -0.3 0 -846.29 0 -77.29 0 -6.41 0.01c-8.73,0.01 -12.26,0.02 -16.15,0.06 -3.89,0.04 -8.13,0.1 -11.86,0.26 -3.73,0.16 -6.93,0.42 -10.11,0.77 -3.19,0.35 -6.35,0.79 -9.78,1.39 -3.44,0.6 -7.15,1.35 -10.8,2.23 -3.65,0.87 -7.23,1.86 -10.45,2.85 -3.23,0.98 -6.1,1.97 -9.2,3.15 -3.1,1.18 -6.45,2.55 -9.2,3.76 -2.75,1.2 -4.91,2.23 -7.66,3.66 -2.75,1.43 -6.09,3.26 -8.81,4.84 -2.73,1.57 -4.83,2.88 -7.17,4.44 -2.35,1.56 -4.93,3.35 -7.75,5.47 -2.82,2.11 -5.87,4.54 -8.77,7.01 -2.91,2.47 -5.65,4.98 -8.18,7.43 -2.53,2.45 -4.85,4.85 -7.17,7.41 -2.32,2.56 -4.65,5.3 -6.71,7.86 -2.07,2.55 -3.87,4.93 -5.65,7.44 -1.79,2.51 -3.56,5.14 -6.08,8.72 -2.53,3.58 -5.82,8.1 -9.3,13.13 -3.49,5.03 -7.18,10.56 -10.44,15.69l-2.87 4.46c-280.02,465.79 -1047.85,1641.7 -1154.62,1861.78 278.43,-4.04 525.93,-14.01 787.39,-17.12l0.11 -0.01 0.19 0 0.31 -0.01 6.21 -0.14c6.63,-0.14 12.99,-0.36 20.26,-0.39 5.47,-0.02 11.41,0.09 17,0.08l0.35 0 0.35 0 0.35 0 0.34 0 0.35 0 0.34 0 4.67 -0.04 0.32 0 0.32 -0.01 0.32 0 0.32 -0.01 0.31 0c5.78,-0.12 10.91,-0.44 16.59,-1.13 6.61,-0.79 13.97,-2.06 20.34,-3.51 6.37,-1.44 11.76,-3.05 17.16,-4.98 5.4,-1.93 10.81,-4.19 16.2,-6.79 5.39,-2.6 10.75,-5.55 15.93,-8.78 5.17,-3.22 10.15,-6.73 15.28,-10.85 5.12,-4.11 10.4,-8.84 15.47,-14.04 5.07,-5.2 9.95,-10.88 14.13,-16.34 4.17,-5.46 7.66,-10.71 12.81,-18.04 5.14,-7.33 11.94,-16.73 17.85,-25.5 4.19,-6.12 7.88,-11.99 12.39,-19.29l0.3 -0.49 0.92 -1.49 0.31 -0.5 0.32 -0.51 0.32 -0.52 0.32 -0.52 0.33 -0.52 0.32 -0.54 0.33 -0.53 0.34 -0.54 0.34 -0.55 0.34 -0.55 0.34 -0.56 0.35 -0.57 0.35 -0.57 0.36 -0.58 0.36 -0.58 0.36 -0.59 0.37 -0.6 0.37 -0.6 0.38 -0.61 0.38 -0.61 0.38 -0.63 0.39 -0.62 0.39 -0.64 0.4 -0.64 0.4 -0.65 0.4 -0.65 0.4 -0.66 0.41 -0.66 0.42 -0.67 0.42 -0.68 0.42 -0.68 0.42 -0.69 0.43 -0.7 0.43 -0.7 0.44 -0.71 0.44 -0.71 0.44 -0.72 0.45 -0.72 0.45 -0.73 0.46 -0.74 0.45 -0.74 0.47 -0.75 0.46 -0.75 0.47 -0.76 0.47 -0.76 0.48 -0.77 0.47 -0.78 0.49 -0.78 0.48 -0.79 0.49 -0.79 0.49 -0.8 0.5 -0.8 0.5 -0.81 0.5 -0.81 0.5 -0.82 0.51 -0.83 0.52 -0.83 0.51 -0.83 0.52 -0.84 0.52 -0.85 0.53 -0.85 0.52 -0.85 1.07 -1.73 0.54 -0.87 0.54 -0.88 0.54 -0.88 3.33 -5.39 0.56 -0.91 1.14 -1.85 0.57 -0.93 0.58 -0.93 0.58 -0.94 1.75 -2.84 0.59 -0.96 107.19 -173.8c78.76,-129.18 145.94,-242.09 223.86,-367.89 75.68,-122.19 146.63,-240.29 223.7,-367.77l222.41 -350.48 1510.29 2580.98z"/>
  <path class="fil0" d="M15148.57 8981.57l882.59 -1.38 0.66 0 4.66 -0.01 0.68 0 0.67 0 0.68 0 2.73 -0.01 0.69 0 0.68 0 0.69 0 0.69 0 0.69 -0.01 0.69 0 0.69 0 0.69 0 0.69 0 0.69 -0.01 0.69 0 0.68 0c9.42,-0.04 18.71,-0.12 26.43,-0.32 12.05,-0.32 20.26,-0.91 26.46,-1.65 6.21,-0.74 10.4,-1.62 14.47,-2.63 4.08,-1.02 8.03,-2.17 13.41,-4.13 5.39,-1.97 12.21,-4.74 18.1,-7.5 5.9,-2.77 10.87,-5.53 15.61,-8.46 4.74,-2.94 9.25,-6.05 13.77,-9.56 4.53,-3.51 9.09,-7.41 13.24,-11.34 4.16,-3.93 7.93,-7.89 11.47,-12 3.55,-4.12 6.88,-8.39 10.15,-12.88 3.27,-4.5 6.47,-9.23 13.7,-21.05 5.86,-9.59 14.39,-23.86 22.54,-37.57l1.52 -2.57 4.08 -6.86 6.43 -10.81 1.16 -1.95 1.14 -1.91 0.54 -0.91 1.75 -2.94 0.36 -0.6 2.47 -4.16 0.73 -1.23 0.29 -0.49 0.5 -0.85 1.12 -1.87 0.02 -0.04 0.69 -1.16 0.5 -0.83 0.33 -0.57 1.4 -2.34 0.4 -0.68 1.53 -2.57 0.18 -0.31 1.32 -2.22 2.11 -3.55 0.54 -0.9 0.42 -0.71 0.76 -1.28 2.95 -4.96 1.14 -1.92 0.31 -0.52 1518.83 -2554.25 -987.39 -0.11c-188.88,261.72 -835.16,1351.43 -1043.76,1700.05 -101.72,169.99 -601.52,946.83 -624.65,1046.53z"/>
  <path class="fil0" d="M14895.41 8906.81l0.04 -0.64 -672.11 -1092.71c-1.64,-2.42 -3.19,-4.86 -4.66,-7.16 -6.64,-10.4 -11.71,-17.86 -15.77,-24.31 -4.06,-6.45 -7.11,-11.88 -11.91,-18.81 -4.81,-6.94 -11.39,-15.37 -17.66,-22.31 -6.28,-6.95 -12.26,-12.41 -17.93,-17.01 -5.68,-4.6 -11.05,-8.35 -17.76,-12.26 -6.71,-3.91 -14.77,-7.98 -21.81,-11.05 -7.05,-3.07 -13.08,-5.13 -19.25,-7.16 -6.17,-2.04 -12.46,-4.05 -21.23,-5.05 -7.41,-0.85 -16.57,-0.99 -30.35,-1.01l-0.77 0 -7.37 0 -12.11 -0.01 -0.99 0 -1.01 0 -1.02 0 -1.02 0 -1.03 0 -1.05 0 -1.05 0 -1.05 0 -1.07 0 -1.07 0 -1.09 0 -1.09 0 -1.09 0 -1.11 0 -1.11 0 -1.12 0 -1.13 0 -1.13 0 -1.15 0 -1.14 0 -1.16 0 -1.16 0 -1.17 0 -1.17 0 -1.18 0 -1.19 0 -1.19 0 -1.2 0 -13.54 -0.01 -1.27 0 -1.26 0 -1.27 0 -1.27 0 -1.28 0 -1.28 0 -1.29 0 -1.29 0 -1.29 0 -1.3 0 -1.3 0 -1.3 0 -1.31 0 -1.31 0 -1.31 0 -1.31 0 -1.32 0 -1.32 0 -1.33 0 -1.33 0 -1.32 0 -1.34 0 -1.33 0 -1.34 0 -1.34 0 -1.34 -0.01 -1.34 0 -1.35 0 -1.35 0 -1.35 0 -1.35 0 -1.35 0 -1.36 0 -1.36 0 -1.36 0 -1.36 0 -1.36 0 -1.37 0 -1.37 0 -1.36 0 -1.37 0 -1.37 0 -1.38 0 -1.37 0 -1.37 0 -1.38 0 -1.38 0 -1.37 0 -1.38 0 -1.38 0 -1.38 0 -1.38 0 -1.38 0 -1.38 0 -1.39 0 -1.38 0 -1.38 0 -1.39 0 -1.38 0 -1.39 0 -1.38 0 -1.39 0 -1.38 0 -1.39 0 -1.38 0 -1.38 0 -13.83 0 -6.87 -0.01 -1.36 0 -1.36 0 -1.35 -0.01 -689.27 -0.13 451.48 757.75c81.53,128.81 203.81,324.04 271.04,441.63l0.23 0.4 0.24 0.4c2.9,4.96 5.93,9.89 9.13,14.69 5.53,8.29 11.64,16.15 16.6,21.98 4.96,5.82 8.78,9.6 13.69,13.84 4.9,4.23 10.9,8.91 18.02,13.56 7.11,4.65 15.35,9.27 24.21,13.22 8.85,3.95 18.33,7.24 27.02,9.57 8.69,2.32 16.6,3.68 25.37,4.42 8.77,0.74 18.39,0.86 29.94,0.99 11.54,0.12 24.99,0.24 45.5,0.29l10.99 0.05 752.22 -0.92 -0.03 0.36 66.92 0 -44.58 -72.57z"/>
 </g>
</svg>
